<?xml version="1.0" encoding="UTF-8"?>
<svg width="40" height="40" viewBox="0 0 40 40" fill="none" xmlns="http://www.w3.org/2000/svg">
  <path d="M20 10C14.477 10 10 14.477 10 20C10 25.523 14.477 30 20 30C25.523 30 30 25.523 30 20C30 14.477 25.523 10 20 10ZM20 28C15.5817 28 12 24.4183 12 20C12 15.5817 15.5817 12 20 12C24.4183 12 28 15.5817 28 20C28 24.4183 24.4183 28 20 28Z" fill="#3B82F6"/>
  <path d="M20 15C17.2386 15 15 17.2386 15 20C15 22.7614 17.2386 25 20 25C22.7614 25 25 22.7614 25 20C25 17.2386 22.7614 15 20 15Z" fill="#3B82F6"/>
</svg>xml version="1.0" encoding="UTF-8"?>
<svg xmlns="http://www.w3.org/2000/svg" viewBox="0 0 96 96" fill="none">
  <rect width="96" height="96" rx="20" fill="#0ea5a4"/>
  <path d="M14 60c12-8 26-8 38 0 12 8 26 8 38 0" stroke="white" stroke-width="6" stroke-linecap="round"/>
  <path d="M14 40c12-8 26-8 38 0 12 8 26 8 38 0" stroke="white" stroke-opacity="0.75" stroke-width="6" stroke-linecap="round"/>
  <circle cx="26" cy="30" r="3" fill="white"/>
</svg>
